Coordinates
version=1
nRows=17
nColumns=24
inDegrees=yes

Units are S.I. units (second, meters, Newtons, ...)
Angles are in degrees.

endheader
time	pelvis_tilt	pelvis_list	pelvis_rotation	pelvis_tx	pelvis_ty	pelvis_tz	hip_flexion_r	hip_adduction_r	hip_rotation_r	knee_angle_r	ankle_angle_r	subtalar_angle_r	mtp_angle_r	hip_flexion_l	hip_adduction_l	hip_rotation_l	knee_angle_l	ankle_angle_l	subtalar_angle_l	mtp_angle_l	lumbar_extension	lumbar_bending	lumbar_rotation
      4.78000000	    -12.11757890	      6.89019399	      5.22445591	     -1.75016305	     -0.02960266	      2.02759414	     22.68957684	    -12.89149565	    -10.13557476	    -63.85654239	    -19.58275289	    -12.60488679	     24.71199874	     26.84021023	     11.41030180	     -5.88062621	    -22.02091194	     -0.50508547	     -4.91795247	     17.26554804	      7.89205499	     -9.28450888	     -3.52510670
      4.79000000	    -12.01071166	      6.83521245	      5.09425036	     -1.73828889	     -0.02746535	      2.02688633	     24.28904345	    -12.45934867	     -9.29150018	    -64.21677428	    -18.21268297	    -12.50563394	     24.79157747	     25.42592657	     11.35129057	     -5.83195630	    -21.15140742	     -0.10390000	     -4.78793348	     17.62871706	      7.67677120	     -9.16642849	     -3.75955042
      4.80000000	    -11.91538219	      6.65354483	      5.07321224	     -1.72650479	     -0.02541105	      2.02601074	     25.77328808	    -11.94218731	     -8.69470084	    -64.22649970	    -16.85960217	    -12.19118071	     25.13222633	     24.03448082	     11.23211205	     -5.55694120	    -20.30432928	      0.34789403	     -4.66734404	     17.71481309	      7.46115763	     -8.92792069	     -4.07498580
      4.81000000	    -11.71541518	      6.40657456	      5.06371834	     -1.71479058	     -0.02326626	      2.02506564	     27.01272335	    -11.37667936	     -8.26011896	    -63.82908164	    -15.68596012	    -11.83978332	     26.85225069	     22.53029070	     11.06013908	     -5.19050506	    -19.44215190	      0.76467450	     -4.63807761	     17.37014665	      7.12922095	     -8.60525330	     -4.41832386
      4.82000000	    -11.63838700	      6.09423276	      5.10093801	     -1.70317568	     -0.02140193	      2.02410390	     28.30775934	    -10.78443316	     -7.98112394	    -63.19094762	    -14.29560337	    -11.28916227	     27.30928859	     21.19612126	     10.82994237	     -4.82360273	    -18.61004086	      1.11914475	     -4.63169625	     17.26041599	      6.92220176	     -8.23271715	     -4.75858143
      4.83000000	    -11.35059387	      5.70051629	      5.18046648	     -1.69163217	     -0.01934476	      2.02299603	     29.21452500	    -10.16205012	     -7.93493365	    -62.14359015	    -13.13301579	    -10.82956994	     28.39762930	     19.63171364	     10.53998521	     -4.25010931	    -17.76448243	      1.44284668	     -4.80543641	     16.63254897	      6.47460063	     -7.74940222	     -5.15776989
      4.84000000	    -11.33712852	      5.28052325	      5.33428942	     -1.68017981	     -0.01785253	      2.02184628	     30.35342217	     -9.60891173	     -8.04628029	    -60.90450757	    -11.88258424	    -10.25088306	     28.85269976	     18.43195846	     10.21639783	     -3.83178730	    -17.01647610	      1.83546500	     -4.74824262	     16.36796921	      6.32170791	     -7.27341933	     -5.54696097
      4.85000000	    -11.10129617	      4.80736201	      5.49454432	     -1.66878947	     -0.01619174	      2.02066807	     31.10637547	     -9.02335436	     -8.34172854	    -59.28973316	    -10.96778966	     -9.93479833	     29.37692072	     16.97672361	      9.83857568	     -3.20427565	    -16.23257039	      2.23432435	     -4.88909416	     15.38680349	      5.92192155	     -6.71404092	     -5.90984634
      4.86000000	    -11.09530086	      4.34396298	      5.75404958	     -1.65747066	     -0.01505781	      2.01941946	     32.03000130	     -8.55973388	     -8.77610953	    -57.50846309	    -10.04103413	     -9.44423177	     29.39755016	     15.83073577	      9.46830960	     -2.75135229	    -15.52305376	      2.60604081	     -4.83508093	     15.06047150	      5.76364964	     -6.19983536	     -6.39315746
      4.87000000	    -10.88081517	      3.88222658	      5.92416345	     -1.64612029	     -0.01384184	      2.01834249	     32.61083788	     -8.03274648	     -9.23558663	    -55.43253356	     -9.29736316	     -9.16646501	     28.76869015	     14.43898920	      9.05301791	     -2.26323413	    -14.77026997	      3.02642006	     -4.89998036	     14.10534355	      5.39361954	     -5.65366116	     -6.73029420
      4.88000000	    -10.87609109	      3.43632970	      6.18917916	     -1.63481136	     -0.01314546	      2.01723397	     33.32823692	     -7.61573124	     -9.80734878	    -53.22118448	     -8.38646906	     -8.66727822	     27.26862970	     13.34219251	      8.66060187	     -1.86479423	    -14.14307038	      3.61712645	     -4.70020780	     12.94759665	      5.24633377	     -5.16370782	     -7.12830704
      4.89000000	    -10.94024372	      2.96164063	      6.47238698	     -1.62353668	     -0.01272487	      2.01613486	     33.99682744	     -7.20970461	    -10.50089939	    -50.72417194	     -7.75255370	     -8.39423880	     26.91174711	     12.34367843	      8.23502895	     -1.46430457	    -13.49942852	      3.97719750	     -4.68072409	     12.82464627	      5.18172648	     -4.64683649	     -7.54055686
      4.90000000	    -10.89780054	      2.59080877	      6.61469485	     -1.61219662	     -0.01244232	      2.01531090	     34.49483219	     -6.79928733	    -11.02919162	    -48.14153320	     -6.73028844	     -7.76927360	     24.40509187	     11.20088944	      7.85843775	     -1.21094468	    -12.83587419	      4.51565640	     -4.56271882	     11.83877511	      5.01026248	     -4.21539292	     -7.77409049
      4.91000000	    -10.90296210	      2.22312109	      6.76889790	     -1.60088669	     -0.01240423	      2.01446277	     34.94186089	     -6.44484734	    -11.69096064	    -45.32580698	     -6.04567622	     -7.24860311	     23.73683665	     10.11928296	      7.48394730	     -0.97230013	    -12.15682032	      4.89195501	     -4.55019897	     11.57000533	      4.88680759	     -3.78423829	     -8.01521341
      4.92000000	    -11.07273136	      1.91523029	      6.94195406	     -1.58953526	     -0.01282720	      2.01364708	     35.51095981	     -6.21337577	    -12.43574663	    -42.44424735	     -5.31901390	     -6.46687607	     23.39026233	      9.24578714	      7.17210826	     -0.84506254	    -11.55139674	      5.35807084	     -4.36891110	     11.45900161	      4.94829155	     -3.44286870	     -8.26609043
      4.93000000	    -11.11866427	      1.66122931	      7.02150486	     -1.57814988	     -0.01325591	      2.01302169	     35.88317313	     -5.95756084	    -13.11604030	    -39.45356066	     -4.60909492	     -5.45054475	     22.98874121	      8.22359226	      6.87031196	     -0.84595767	    -10.92470407	      5.78667768	     -4.15926823	     11.22471476	      4.87112431	     -3.12712838	     -8.42456271
      4.94000000	    -11.22201013	      1.44688939	      7.00832542	     -1.56670141	     -0.01396815	      2.01259331	     36.28595666	     -5.67913573	    -13.71497559	    -36.41918093	     -3.95256558	     -4.21657842	     22.80909404	      7.26181062	      6.59346237	     -0.94937086	    -10.30971923	      6.25708660	     -3.92704253	     10.97039189	      4.85964238	     -2.85296932	     -8.46390442
